<svg xmlns="http://www.w3.org/2000/svg" width="965.0002" height="1024" viewBox="0 0 965.0002 1024"><g id="eaff46b7-9a5c-43a7-ae2d-f852f58ecf8f" data-name="container - BLUE"><path id="edb25bad-3e75-4fc2-b787-023aedd06006" data-name="back layer" d="M185,.15,915,160h79v864H166a52,52,0,0,1-52-52V754.2921L183.4662,2.4109Z" transform="translate(-29)" fill="#0c3d91"/><path id="ab308e8a-47af-4031-ac4e-9d8054c3a688" data-name="primary facade" d="M156,0H842a52,52,0,0,1,52,52V720a0,0,0,0,1,0,0H156a0,0,0,0,1,0,0V0A0,0,0,0,1,156,0Z" fill="#186bff"/><polygon id="f0e0bf2b-b287-4c71-ac75-82a862e8ac36" data-name="flap" points="0 814 156 720 156 0 0 94 0 814" fill="#679ae7"/></g><g id="ae93ea22-eb08-467b-9b5a-f2696111aa84" data-name="product subscript template"><path d="M482.022,790.9248V942.127H446.1655V844.4932l-25.2724,97.4179v.2159H385.2524L358.4683,840.6055V942.127h-32.4V790.9248h47.52l30.457,121.3936,31.9688-120.962-.2168-.4316Z" transform="translate(-29)" fill="#fff"/><path d="M592.7861,909.0781H547.4248L539.001,942.127H501.4165l43.2007-151.2022h50.3291L640.5225,942.127H602.0742Zm-23.1123-93.3125L554.3369,880.998h31.1055Z" transform="translate(-29)" fill="#fff"/><path d="M782.15,790.9248V942.127H741.3262l-49.2491-104.33v104.33H659.8926V790.9248h44.2812l45.792,93.7451V790.9248Z" transform="translate(-29)" fill="#fff"/></g><g id="a5eabc92-6c19-47be-bc65-aa052141a2cb" data-name="product initial template"><path d="M715.6,161.1221V560.127H607.8682L477.9072,284.8135V560.127H392.9756V161.1221H509.8271L630.6689,408.5049V161.1221Z" transform="translate(-29)" fill="#fff"/></g></svg>